<svg width="122.42000732421874px" height="334.92001953125px" xmlns="http://www.w3.org/2000/svg" viewBox="188.7899963378906 -92.46000976562499 122.42000732421874 334.92001953125" style="background: none;" preserveAspectRatio="xMidYMid"><defs><filter id="editing-hover" x="-100%" y="-100%" width="300%" height="300%"><feFlood flood-color="#003c71" result="flood"></feFlood><feComposite operator="in" in2="SourceAlpha" in="flood" result="shadow"></feComposite><feOffset dx="-3.9" dy="-1.9" in="SourceGraphic" result="offset-1"></feOffset><feOffset dx="3.9" dy="1.9" in="shadow" result="offset-2"></feOffset><feMerge><feMergeNode in="offset-2"></feMergeNode><feMergeNode in="offset-1"></feMergeNode></feMerge></filter></defs><g filter="url(#editing-hover)"><g transform="translate(218.35199880599976, 132.0399932861328)"><path d="M56.67-50.05L56.67-50.05L56.67-50.05Q56.67-60.54 48.02-60.54L48.02-60.54L48.02-60.54Q47.29-60.54 46.55-60.54L46.55-60.54L46.55-60.54Q43.24-60.17 42.69-61.82L42.69-61.82L42.69-61.82Q42.14-63.48 44.34-64.03L44.34-64.03L44.34-64.03Q46.55-64.58 49.13-64.22L49.13-64.22L49.13-64.22Q58.70-62.74 62.19-55.20L62.19-55.20L62.19-55.20Q64.58-50.60 64.58-46.18L64.58-46.18L64.58-46.18Q64.58-30.36 52.99-15.09L52.99-15.09L52.99-15.09Q41.40 0.37 23 0.37L23 0.37L23 0.37Q16.19 0.37 11.96-3.50L11.96-3.50L11.96-3.50Q7.73-7.36 7.73-13.80L7.73-13.80L7.73-13.80Q7.73-21.53 16.56-39.93L16.56-39.93L16.56-39.93Q1.47-11.41-2.94-7.18L-2.94-7.18L-2.94-7.18Q-4.78-5.52-4.78-8.28L-4.78-8.28L-4.78-8.28Q-4.78-8.83-4.42-9.57L-4.42-9.57L-4.42-9.57Q2.02-18.03 21.25-55.57L21.25-55.57L21.25-55.57Q40.48-93.10 48.21-104.70L48.21-104.70L48.21-104.70Q54.46-113.71 60.35-113.71L60.35-113.71L60.35-113.71Q60.35-113.71 60.54-113.71L60.54-113.71L61.46-113.71L61.46-113.71Q61.64-113.71 64.68-113.16L64.68-113.16L64.68-113.16Q67.71-112.61 69.18-112.98L69.18-112.98L69.18-112.98Q63.11-106.54 50.05-87.22L50.05-87.22L50.05-87.22Q17.66-39.19 17.66-15.46L17.66-15.46L17.66-15.46Q17.66-5.70 23.92-4.42L23.92-4.42L23.92-4.42Q24.47-4.23 25.21-4.23L25.21-4.23L25.21-4.23Q30.91-4.23 39.47-14.44L39.47-14.44L39.47-14.44Q48.02-24.66 53.54-37.72L53.54-37.72L53.54-37.72Q56.67-44.53 56.67-50.05Z" fill="#dfa0c9"></path></g></g><style>text {
  font-size: 64px;
  font-family: Arial Black;
  dominant-baseline: central;
  text-anchor: middle;
}</style></svg>