<svg xmlns:mydata="http://www.w3.org/2000/svg" mydata:contrastcolor="ffffff" mydata:template="Contrast" mydata:presentation="2.5" mydata:layouttype="undefined" mydata:specialfontid="undefined" mydata:id1="070" mydata:id2="053" mydata:companyname="BeYOUty Lounge" mydata:companytagline="" version="1.1" xmlns="http://www.w3.org/2000/svg" xmlns:xlink="http://www.w3.org/1999/xlink" viewBox="0 45 550 380"><g fill="none" fill-rule="nonzero" stroke="none" stroke-width="1" stroke-linecap="butt" stroke-linejoin="miter" stroke-miterlimit="10" stroke-dasharray="" stroke-dashoffset="0" font-family="none" font-weight="none" font-size="none" text-anchor="none" style="mix-blend-mode: normal"><g data-paper-data="{&quot;isGlobalGroup&quot;:true,&quot;bounds&quot;:{&quot;x&quot;:65,&quot;y&quot;:198.8230777215989,&quot;width&quot;:419.99999999999994,&quot;height&quot;:72.35384455680219}}"><g data-paper-data="{&quot;isSecondaryText&quot;:true}" fill="#003c71"><path d="M157.14761,271.0366v-1.54355h-5.27964v-11.98004h-1.68387v13.52359z" data-paper-data="{&quot;glyphName&quot;:&quot;L&quot;,&quot;glyphIndex&quot;:0,&quot;firstGlyphOfWord&quot;:true,&quot;word&quot;:1}"></path><path d="M179.87991,261.88055c0,-2.96432 -0.66653,-4.56049 -4.38508,-4.56049c-3.71855,0 -4.38508,1.59617 -4.38508,4.56049v4.71835c0,2.96432 0.66653,4.56049 4.38508,4.56049c3.71855,0 4.38508,-1.59617 4.38508,-4.56049zM178.19604,266.61644c0,2.13992 -0.1754,2.98186 -2.70121,2.98186c-2.52581,0 -2.70121,-0.84194 -2.70121,-2.98186v-4.75343c0,-2.13992 0.1754,-3.01694 2.70121,-3.01694c2.52581,0 2.70121,0.87702 2.70121,3.01694z" data-paper-data="{&quot;glyphName&quot;:&quot;O&quot;,&quot;glyphIndex&quot;:1,&quot;word&quot;:1}"></path><path d="M202.97512,266.5989c0,2.13992 -0.38589,2.98186 -2.47319,2.98186c-2.0873,0 -2.50827,-0.84194 -2.50827,-2.98186v-9.08589h-1.68387v9.06835c0,2.96432 0.98226,4.56049 4.19214,4.56049c3.20988,0 4.15706,-1.59617 4.15706,-4.56049v-9.08589h-1.68387z" data-paper-data="{&quot;glyphName&quot;:&quot;U&quot;,&quot;glyphIndex&quot;:2,&quot;word&quot;:1}"></path><path d="M222.62259,257.51301h-1.57863v13.52359h1.66633v-5.27964l-0.10524,-4.4377l4.45524,9.71734h1.56109v-13.52359h-1.66633v5.75323l0.24556,4.59557z" data-paper-data="{&quot;glyphName&quot;:&quot;N&quot;,&quot;glyphIndex&quot;:3,&quot;word&quot;:1}"></path><path d="M253.60503,261.14385c-0.07016,-2.66613 -0.78931,-3.78871 -4.33246,-3.78871c-3.71855,0 -4.38508,1.59617 -4.38508,4.56049v4.70081c0,2.96432 0.66653,4.56049 4.38508,4.56049c4.06936,0 4.38508,-1.59617 4.38508,-4.20968v-3.3502h-4.31492v1.50847h2.63105v1.84173c0,2.13992 -0.1754,2.64859 -2.70121,2.64859c-2.52581,0 -2.70121,-0.84194 -2.70121,-2.98186v-4.73589c0,-2.19254 0.45605,-3.03448 2.70121,-3.03448c2.24516,0 2.66613,0.71915 2.70121,2.28024z" data-paper-data="{&quot;glyphName&quot;:&quot;G&quot;,&quot;glyphIndex&quot;:4,&quot;word&quot;:1}"></path><path d="M269.74571,257.49547v13.54113h7.2617v-1.56109h-5.59536v-4.87621h4.66573v-1.56109h-4.66573v-4.06936h5.15686v-1.47339z" data-paper-data="{&quot;glyphName&quot;:&quot;E&quot;,&quot;glyphIndex&quot;:5,&quot;lastGlyphOfWord&quot;:true,&quot;word&quot;:1}"></path></g><g data-paper-data="{&quot;isPrimaryText&quot;:true}" fill="#dfa0c9"><path d="M190.29565,233.13382c0,-6.80725 -4.68456,-10.46706 -10.83304,-11.7114c4.68456,-1.46392 7.31962,-4.90415 7.31962,-9.58871c0,-9.88149 -11.34542,-12.00418 -17.5671,-12.00418h-17.71349c-0.73196,0 -1.31753,0.58557 -1.31753,1.31753c0,14.63925 0,29.2785 0,43.91775c0,0.73196 0.58557,1.31753 1.31753,1.31753c6.73405,0 13.46811,0 20.20216,0c9.00314,0 18.59185,-2.85465 18.59185,-13.24852zM169.21513,202.02541c4.97734,0.0732 15.00523,1.9031 15.00523,9.8083c0,6.80725 -6.51447,8.92994 -14.05368,8.92994h-17.4939v-18.73824zM170.16668,223.10593h3.8794c7.61241,0 13.6877,2.85465 13.6877,10.02789c0,9.00314 -8.34437,11.05263 -16.02998,11.05263c-6.36807,0 -12.73615,0 -19.03102,0v-21.08052z" data-paper-data="{&quot;glyphName&quot;:&quot;B&quot;,&quot;glyphIndex&quot;:0,&quot;firstGlyphOfWord&quot;:true,&quot;word&quot;:1}"></path><path d="M202.8854,224.42347h30.88882c1.53712,0 1.53712,-2.19589 0,-2.19589h-30.88882v-20.20216h32.35274c1.53712,0 1.53712,-2.19589 0.0732,-2.19589h-32.86511c-1.17114,0 -1.9763,0.87835 -1.9763,1.9031v42.67341c0,1.09794 0.80516,1.9763 1.9763,1.9763h32.79192c1.53712,0 1.53712,-2.34228 0,-2.34228h-32.35274z" data-paper-data="{&quot;glyphName&quot;:&quot;E&quot;,&quot;glyphIndex&quot;:1,&quot;word&quot;:1}"></path><path d="M261.80838,245.2844c0,0.95155 0.58557,1.39073 1.24434,1.39073c0.58557,0 1.24434,-0.43918 1.24434,-1.39073v-17.85988l19.61659,-26.20426c1.31753,-1.46392 -0.51237,-2.92785 -1.82991,-1.46392l-19.03102,25.61869l-19.10422,-25.61869c-1.31753,-1.46392 -3.07424,0 -1.82991,1.46392l19.68979,26.20426z" data-paper-data="{&quot;glyphName&quot;:&quot;Y&quot;,&quot;glyphIndex&quot;:2,&quot;word&quot;:1}"></path><path d="M312.89936,247.26069c12.73615,0 23.71558,-10.83304 23.27641,-24.95992c-0.29278,-11.34542 -8.19798,-21.3733 -19.76299,-23.20321c-2.56187,-0.36598 -5.34333,-0.36598 -7.90519,0c-11.49181,1.82991 -18.51865,11.85779 -18.88463,23.20321c-0.36598,14.12688 10.61346,24.95992 23.27641,24.95992zM308.87357,201.43984c2.34228,-0.36598 4.83095,-0.36598 7.17323,0c10.39387,1.61032 17.42071,10.68665 17.71349,20.93413c0.36598,12.58975 -9.44232,22.61764 -20.86093,22.61764c-11.34542,0 -21.15372,-10.02789 -20.78773,-22.61764c0.29278,-10.24747 6.44127,-19.32381 16.76194,-20.93413z" data-paper-data="{&quot;glyphName&quot;:&quot;O&quot;,&quot;glyphIndex&quot;:3,&quot;word&quot;:1}"></path><path d="M386.75437,225.88739c0,24.74033 -37.47648,24.74033 -37.47648,0c0,-8.78355 0,-16.68874 0,-25.47229c0,-1.61032 -2.34228,-1.61032 -2.34228,-0.0732c0,8.85675 0,16.76194 0,25.54549c0,27.96097 42.23423,27.96097 42.23423,0c0,-8.78355 0,-16.68874 0,-25.54549c0,-1.53712 -2.41548,-1.53712 -2.41548,0.0732c0,8.78355 0,16.68874 0,25.47229z" data-paper-data="{&quot;glyphName&quot;:&quot;U&quot;,&quot;glyphIndex&quot;:4,&quot;word&quot;:1}"></path><path d="M396.92865,199.75633c-1.75671,0 -1.75671,2.19589 0,2.19589h18.88463v43.33218c0,0.95155 0.65877,1.39073 1.24434,1.39073c0.58557,0 1.31753,-0.43918 1.31753,-1.39073l-0.0732,-43.33218h18.95783c1.75671,0 1.75671,-2.19589 0,-2.19589c-13.46811,0 -26.93622,0 -40.33113,0z" data-paper-data="{&quot;glyphName&quot;:&quot;T&quot;,&quot;glyphIndex&quot;:5,&quot;word&quot;:1}"></path><path d="M462.43929,245.2844c0,0.95155 0.58557,1.39073 1.24434,1.39073c0.58557,0 1.24434,-0.43918 1.24434,-1.39073v-17.85988l19.61659,-26.20426c1.31753,-1.46392 -0.51237,-2.92785 -1.82991,-1.46392l-19.03102,25.61869l-19.10422,-25.61869c-1.31753,-1.46392 -3.07424,0 -1.82991,1.46392l19.68979,26.20426z" data-paper-data="{&quot;glyphName&quot;:&quot;Y&quot;,&quot;glyphIndex&quot;:6,&quot;lastGlyphOfWord&quot;:true,&quot;word&quot;:1}"></path></g><g data-paper-data="{&quot;initialText&quot;:&quot;b&quot;,&quot;fillRule&quot;:&quot;nonzero&quot;,&quot;selectedEffects&quot;:{&quot;container&quot;:&quot;&quot;,&quot;transformation&quot;:&quot;&quot;,&quot;pattern&quot;:&quot;&quot;},&quot;bounds&quot;:{&quot;x&quot;:65,&quot;y&quot;:198.8230777215989,&quot;width&quot;:47.00228426498309,&quot;height&quot;:72.35384455680219},&quot;isIcon&quot;:&quot;true&quot;,&quot;iconType&quot;:&quot;initial&quot;,&quot;iconStyle&quot;:&quot;standalone&quot;,&quot;rawInitialId&quot;:324,&quot;suitableAsStandaloneIcon&quot;:true}" fill="#dfa0c9"><path d="M98.68777,204.55144c-10.04428,14.94963 -25.4611,49.87104 -33.40309,60.3825c-0.70077,1.05115 0,2.33588 0.93435,1.51832c2.33588,-2.21909 7.00764,-10.62826 12.38017,-20.78933c-2.33588,4.78856 -4.20458,9.22673 -5.13894,12.84734c-2.10229,8.40917 2.80306,15.30001 16.11757,11.6794c9.8107,-2.56947 16.93513,-13.6649 19.03742,-23.4756c1.51832,-7.47482 -0.81756,-15.18322 -9.34352,-16.46796c-5.25573,-0.81756 -5.13894,2.68626 -1.63512,2.33588c7.35802,-0.70077 7.47482,6.77405 4.43817,14.48246c-1.9855,4.67176 -5.48932,10.62826 -8.75955,14.48246c-4.08779,4.90535 -7.35802,7.24123 -10.04428,6.65726c-7.94199,-1.63512 -2.91985,-18.10307 3.03664,-29.89927c7.8252,-15.5336 21.4901,-34.57103 25.69468,-39.0092c-1.63512,0.35038 -3.38702,-0.35038 -4.90535,-0.46717h-0.58397c-2.56947,-0.11679 -5.02214,1.63512 -7.8252,5.72291z" data-paper-data="{&quot;isPathIcon&quot;:true}"></path></g><path d="M127.27501,271.17692v-72.35384h1.59436v72.35384z" data-paper-data="{&quot;isShapeTextSeparator&quot;:true}" fill="#dfa0c9"></path></g></g></svg>