<svg xmlns:mydata="http://www.w3.org/2000/svg" mydata:contrastcolor="f1d3a1"
    mydata:template="Contrast" mydata:presentation="2.5" mydata:layouttype="undefined"
    mydata:specialfontid="undefined" mydata:id1="748" mydata:id2="469"
    mydata:companyname="Tundi Hair" mydata:companytagline="" version="1.1"
    xmlns="http://www.w3.org/2000/svg" xmlns:xlink="http://www.w3.org/1999/xlink"
    viewBox="0 0 550 470">
    <g fill="#101820" fill-rule="nonzero" stroke="none" stroke-width="1" stroke-linecap="butt"
        stroke-linejoin="miter" stroke-miterlimit="10" stroke-dasharray="" stroke-dashoffset="0"
        font-family="none" font-weight="none" font-size="none" text-anchor="none"
        style="mix-blend-mode: normal">
        <g
            data-paper-data="{&quot;isGlobalGroup&quot;:true,&quot;bounds&quot;:{&quot;x&quot;:83.25768323309853,&quot;y&quot;:174.87342096593684,&quot;width&quot;:383.48463353380293,&quot;height&quot;:120.25315806812623}}">
            <g data-paper-data="{&quot;stacked&quot;:true,&quot;isPrimaryText&quot;:true}"
                id="element-id-7296">
                <path
                    d="M249.36179,174.87342v2.10214h19.29945v44.85389h7.70828v-44.85389h17.03832v-2.10214z"
                    data-paper-data="{&quot;glyphName&quot;:&quot;T&quot;,&quot;glyphIndex&quot;:0,&quot;firstGlyphOfWord&quot;:true,&quot;word&quot;:1,&quot;line&quot;:1,&quot;firstGlyphOfFirstLine&quot;:true}"
                    fill="#101820" id="element-id-32176"></path>
                <path
                    d="M336.07165,221.82945v-1.9817h-33.87638v1.9817zM335.61834,174.87342v18.36645c0,2.58724 -0.62651,4.90453 -1.88089,6.95119c-1.25506,2.04598 -3.04664,3.64609 -5.37543,4.79763c-2.33014,1.15289 -5.0818,1.72866 -8.25563,1.72866c-4.45325,0 -12.28535,-2.22866 -12.28535,-14.04175v-17.80218h-7.58041v19.25954c0,2.60483 0.72597,5.04188 2.17791,7.3091c1.45126,2.26857 3.61632,4.08857 6.49449,5.46406c2.8775,1.37413 6.32332,2.06222 10.33747,2.06222c6.65349,0 11.44639,-1.60417 14.37801,-4.81319c2.93095,-3.20834 4.39574,-7.22452 4.39574,-12.0499v-17.23182z"
                    data-paper-data="{&quot;glyphName&quot;:&quot;&quot;,&quot;glyphIndex&quot;:1,&quot;word&quot;:1,&quot;line&quot;:1}"
                    fill="#101820" id="element-id-50762"></path>
                <path
                    d="M391.51606,174.87342v34.50898l-20.10661,-16.27582l-21.20268,-18.23316h-3.34975v46.7084h2.09469v-36.14901l43.02577,36.39596h1.63056v-46.95535z"
                    data-paper-data="{&quot;glyphName&quot;:&quot;N&quot;,&quot;glyphIndex&quot;:2,&quot;word&quot;:1,&quot;line&quot;:1}"
                    fill="#101820" id="element-id-56434"></path>
                <path
                    d="M447.28387,186.54579c-1.94923,-3.57776 -4.84973,-6.41669 -8.69812,-8.51882c-3.85177,-2.10078 -8.49514,-3.15354 -13.93282,-3.15354h-22.24867v46.95738h22.24867c5.29289,-0.04398 9.8774,-1.12854 13.75217,-3.25367c3.8741,-2.12311 6.80978,-4.96407 8.80705,-8.51882c1.99659,-3.55543 2.9959,-7.45659 2.9959,-11.70619c-0.00068,-4.29223 -0.97563,-8.22789 -2.92418,-11.80633zM440.42267,209.19296c-1.43841,3.28615 -3.54799,5.89234 -6.32941,7.81924c-2.78142,1.9269 -6.15215,2.89035 -10.11217,2.89035h-13.86854v-43.10223h13.93891c3.91266,0.04533 7.27189,1.03111 10.07699,2.95666c2.80307,1.92825 4.914,4.52362 6.32941,7.78609c1.41338,3.26382 2.12176,6.86729 2.12176,10.80905c0,3.94243 -0.71988,7.55605 -2.15694,10.84085z"
                    data-paper-data="{&quot;glyphName&quot;:&quot;D&quot;,&quot;glyphIndex&quot;:3,&quot;word&quot;:1,&quot;line&quot;:1}"
                    fill="#101820" id="element-id-56594"></path>
                <path d="M466.74232,221.82945v-46.95603h-7.70828v46.95603z"
                    data-paper-data="{&quot;glyphName&quot;:&quot;I&quot;,&quot;glyphIndex&quot;:4,&quot;lastGlyphOfWord&quot;:true,&quot;word&quot;:1,&quot;line&quot;:1,&quot;lastGlyphOfFirstLine&quot;:true}"
                    fill="#101820" id="element-id-15866"></path>
                <path
                    d="M305.54339,233.46488v24.89142h-46.05925v-24.89142h-10.12235v61.66169h10.12235v-34.23902h46.05925v34.23902h10.12235v-61.66169z"
                    data-paper-data="{&quot;glyphName&quot;:&quot;H&quot;,&quot;glyphIndex&quot;:5,&quot;firstGlyphOfWord&quot;:true,&quot;word&quot;:2,&quot;line&quot;:2,&quot;firstGlyphOfSecondLine&quot;:true}"
                    fill="#101820" id="element-id-67089"></path>
                <path
                    d="M355.30223,233.62747l-1.36647,-2.98971l-5.71287,11.84865l-25.38452,52.64015h2.80846l6.31703,-13.10051h34.33231l5.99007,13.10051h11.12988zM333.21928,279.42373l16.37009,-33.94672l15.51538,33.94672z"
                    data-paper-data="{&quot;glyphName&quot;:&quot;A&quot;,&quot;glyphIndex&quot;:6,&quot;word&quot;:2,&quot;line&quot;:2}"
                    fill="#101820" id="element-id-20151"></path>
                <path d="M399.77378,295.12657v-61.66169h-10.12235v61.66169z"
                    data-paper-data="{&quot;glyphName&quot;:&quot;I&quot;,&quot;glyphIndex&quot;:7,&quot;word&quot;:2,&quot;line&quot;:2}"
                    fill="#101820" id="element-id-17780"></path>
                <path
                    d="M450.8911,281.30285c-1.07239,-1.0866 -2.2887,-2.02127 -3.61519,-2.77914c-0.00977,-0.00533 -0.01955,-0.01155 -0.03021,-0.01688c0.18924,-0.01599 0.47267,-0.05953 0.89647,-0.14215c0.54996,-0.10839 1.10082,-0.19902 1.64278,-0.33229c2.0577,-0.50288 4.03188,-1.3176 5.919,-2.45396c3.39929,-2.04615 6.09047,-4.78886 8.06821,-8.22458c1.97685,-3.43572 2.96749,-7.20017 2.96749,-11.2978c0,-5.01364 -1.50951,-9.55995 -4.52587,-13.63892c-1.23409,-1.66855 -2.71606,-3.1523 -4.38016,-4.38994c-4.0923,-3.04213 -8.65194,-4.56319 -13.68513,-4.56319h-32.81836v61.66169h10.12235v-16.47581h6.57291c3.61697,0 7.08823,1.42155 9.66657,3.95725l7.64352,7.52091c3.25625,3.20294 7.64085,4.99854 12.20849,4.99854h9.19834v-0.97998c-3.20738,-1.09193 -6.15888,-3.02169 -8.55154,-5.44811zM443.70781,274.5558c-2.01861,0.77652 -4.14294,1.2483 -6.40055,1.3336h-15.85655v-39.66403h14.91832c4.30376,0 7.98203,0.88225 11.0357,2.64498c3.05457,1.7645 5.36193,4.13672 6.92386,7.11843c1.56193,2.98438 2.34201,6.34102 2.34201,10.06905c0,3.52634 -0.86892,6.76216 -2.60233,9.71277c-1.73518,2.95061 -4.07808,5.33971 -7.02781,7.16997c-1.06705,0.6628 -2.18742,1.17456 -3.33266,1.61524z"
                    data-paper-data="{&quot;glyphName&quot;:&quot;R&quot;,&quot;glyphIndex&quot;:8,&quot;lastGlyphOfWord&quot;:true,&quot;word&quot;:2,&quot;line&quot;:2,&quot;lastGlyphOfSecondLine&quot;:true}"
                    fill="#101820" id="element-id-8040"></path>
            </g>
            <g data-paper-data="{&quot;fillRule&quot;:&quot;nonzero&quot;,&quot;fillRuleOriginal&quot;:&quot;nonzero&quot;,&quot;isIcon&quot;:true,&quot;iconStyle&quot;:&quot;standalone&quot;,&quot;selectedEffects&quot;:{&quot;container&quot;:&quot;circle_simple_filledplus&quot;,&quot;transformation&quot;:&quot;&quot;,&quot;pattern&quot;:&quot;&quot;},&quot;bounds&quot;:{&quot;x&quot;:83.25768323309853,&quot;y&quot;:174.87342096593684,&quot;width&quot;:120.25324224538315,&quot;height&quot;:120.25315806812623},&quot;widthRatioIconToContainer&quot;:0.7617558919640389,&quot;heightRatioIconToContainer&quot;:0.7660812120705784,&quot;relativeBoundsIconToContainer&quot;:{&quot;top&quot;:-0.008283762619387144,&quot;left&quot;:0.014490024489853297},&quot;iconType&quot;:&quot;initial&quot;,&quot;initialText&quot;:&quot;TH&quot;,&quot;rawInitialId&quot;:1087,&quot;blockLetter&quot;:&quot;O&quot;,&quot;blockLetterId&quot;:0,&quot;monogramSpecial&quot;:&quot;emblem&quot;,&quot;suitableAsStandaloneIcon&quot;:true}"
                id="element-id-40562">
                <path
                    d="M89.95744,235.00014c0,-29.50689 23.92006,-53.42694 53.42694,-53.42694c29.50689,0 53.42694,23.92006 53.42694,53.42694c0,29.50689 -23.92006,53.42694 -53.42694,53.42694c-29.50689,0 -53.42694,-23.92006 -53.42694,-53.42694zM128.4277,280.06571v-81.23631c3.87338,-1.4656 7.95613,-2.40778 12.35294,-2.51246v-8.37488c-18.52942,0.62811 -34.337,11.82951 -41.45565,27.84647h9.31705c2.82652,-4.92024 6.80459,-9.21237 11.41077,-12.45763v73.28018c2.61715,1.4656 5.44367,2.61715 8.37488,3.45463zM146.35264,280.06571c2.86925,-0.10247 5.53357,-0.4099 8.19788,-1.02474v-27.36042l28.18021,-16.19081c-0.4099,11.5795 -6.04594,21.82685 -14.6537,28.48762l5.84099,5.84099c10.34982,-8.5053 17.0106,-21.41696 17.0106,-35.76324c0,-13.21908 -5.53357,-25.106 -14.34629,-33.50883l-5.84099,5.84099c5.63604,5.22614 9.63251,12.19434 11.27208,19.98233l-27.46289,15.88339v-53.28621c-2.66431,-0.61484 -5.32862,-0.92226 -8.19788,-1.02474zM203.49998,236.18506l-0.01418,0.60036l-0.01999,0.60036l-0.02612,0.60036l-0.0316,0.60036l-0.03772,0.59971l-0.04353,0.5994l-0.04965,0.59907l-0.05545,0.59875l-0.06126,0.5981l-0.06771,0.59746l-0.07319,0.59682l-0.07964,0.59617l-0.08545,0.59521l-0.09157,0.59456l-0.09769,0.59359l-0.10382,0.59263l-0.10962,0.59133l-0.11575,0.59037l-0.12156,0.58908l-0.128,0.58779l-0.13349,0.5865l-0.13993,0.58521l-0.14573,0.58359l-0.15154,0.58198l-0.15767,0.58069l-0.16347,0.57876l-0.16927,0.57715l-0.17508,0.57553l-0.1812,0.5736l-0.18669,0.57167l-0.19249,0.56973l-0.19797,0.56747l-0.2041,0.56586l-0.20926,0.5636l-0.21506,0.56135l-0.22054,0.55909l-0.2257,0.55683l-0.23151,0.5549l-0.13607,0.31952l-0.23859,0.54813l-0.24537,0.54878l-0.25053,0.5462l-0.25569,0.54394l-0.26149,0.54136l-0.26665,0.53878l-0.27213,0.5362l-0.27761,0.5333l-0.28277,0.53072l-0.28825,0.52782l-0.29341,0.52491l-0.29889,0.52169l-0.30405,0.51911l-0.30921,0.51589l-0.31469,0.51234l-0.31985,0.50976l-0.32468,0.50589l-0.33017,0.50299l-0.33533,0.49944l-0.34016,0.49589l-0.34532,0.49267l-0.35016,0.48912l-0.35532,0.48525l-0.36015,0.48171l-0.36499,0.47816l-0.3695,0.47429l-0.37466,0.47042l-0.37918,0.46688l-0.38369,0.463l-0.3882,0.45881l-0.39304,0.45527l-0.39723,0.45108l-0.40175,0.44721l-0.40594,0.44302l-0.41013,0.43915l-0.41465,0.43496l-0.41851,0.43109l-0.4227,0.42657l-0.24601,0.24472l-0.42689,0.41851l-0.43334,0.41626l-0.43721,0.41207l-0.44108,0.40787l-0.44527,0.40368l-0.44946,0.39917l-0.45334,0.39498l-0.4572,0.39014l-0.46107,0.38595l-0.46494,0.38111l-0.46881,0.3766l-0.47268,0.37176l-0.47623,0.36725l-0.48009,0.36209l-0.48364,0.35757l-0.48751,0.35241l-0.49074,0.34758l-0.49461,0.34242l-0.49783,0.33758l-0.50138,0.33242l-0.5046,0.32726l-0.50815,0.3221l-0.51105,0.31695l-0.51459,0.31179l-0.5175,0.30631l-0.5204,0.30115l-0.52362,0.29599l-0.52652,0.29083l-0.52943,0.28502l-0.53233,0.27987l-0.53491,0.27471l-0.53749,0.26923l-0.54039,0.26375l-0.54265,0.25827l-0.54523,0.25311l-0.54781,0.24763l-0.55006,0.24214l-0.552,0.23698l-0.54587,0.22763l-0.55651,0.22602l-0.55909,0.22086l-0.56135,0.21506l-0.56328,0.20958l-0.56554,0.2041l-0.56747,0.19829l-0.56973,0.19249l-0.57167,0.18701l-0.57328,0.1812l-0.57521,0.1754l-0.57715,0.1696l-0.57876,0.16379l-0.58037,0.15767l-0.58231,0.15186l-0.58359,0.14606l-0.58489,0.13993l-0.5865,0.13381l-0.58779,0.128l-0.58908,0.1222l-0.59037,0.11575l-0.59133,0.10995l-0.59263,0.10415l-0.59327,0.09769l-0.59456,0.09189l-0.59521,0.08576l-0.59617,0.07964l-0.59682,0.07384l-0.59746,0.06771l-0.59843,0.06158l-0.59843,0.05578l-0.5994,0.04965l-0.5994,0.04385l-0.60004,0.03805l-0.60004,0.03192l-0.60036,0.02612l-0.60068,0.02031l-0.60036,0.01451l-0.60068,0.00838l-0.60068,0.0029l-0.59101,-0.00258l-0.60068,-0.00838l-0.60036,-0.01418l-0.60068,-0.01999l-0.60004,-0.02612l-0.60036,-0.0316l-0.59971,-0.03772l-0.5994,-0.04353l-0.59907,-0.04965l-0.59875,-0.05545l-0.59814,-0.06126l-0.59749,-0.06739l-0.59685,-0.07351l-0.59614,-0.07964l-0.5953,-0.08545l-0.59446,-0.09157l-0.59349,-0.09769l-0.59256,-0.1035l-0.5914,-0.10995l-0.59034,-0.11543l-0.58914,-0.12188l-0.58782,-0.12768l-0.58653,-0.13381l-0.58508,-0.13961l-0.58366,-0.14573l-0.58215,-0.15186l-0.58053,-0.15735l-0.57886,-0.16347l-0.57718,-0.1696l-0.57538,-0.17508l-0.57357,-0.18088l-0.57167,-0.18669l-0.56973,-0.19249l-0.5677,-0.19829l-0.56567,-0.20378l-0.56354,-0.20926l-0.56141,-0.21506l-0.55919,-0.22054l-0.55693,-0.2257l-0.55464,-0.23151l-0.31952,-0.13607l-0.54826,-0.23859l-0.54864,-0.24505l-0.54629,-0.25085l-0.54384,-0.25569l-0.54136,-0.26149l-0.53871,-0.26665l-0.53614,-0.27213l-0.53343,-0.27761l-0.53062,-0.28277l-0.52782,-0.28825l-0.52491,-0.29341l-0.52192,-0.29889l-0.51892,-0.30405l-0.51579,-0.30921l-0.51269,-0.31469l-0.50943,-0.31985l-0.50615,-0.32501l-0.50289,-0.32984l-0.49944,-0.33533l-0.49603,-0.34016l-0.49252,-0.34532l-0.48899,-0.35048l-0.48538,-0.35499l-0.48175,-0.36015l-0.47807,-0.36499l-0.47433,-0.3695l-0.47054,-0.37466l-0.46676,-0.37918l-0.46288,-0.38369l-0.459,-0.3882l-0.45509,-0.39304l-0.45112,-0.39723l-0.44715,-0.40175l-0.44313,-0.40594l-0.4391,-0.41013l-0.43502,-0.41465l-0.43096,-0.41851l-0.42686,-0.4227l-0.24495,-0.24633l-0.41835,-0.42689l-0.41632,-0.43334l-0.4121,-0.43721l-0.4079,-0.44108l-0.40358,-0.44527l-0.39923,-0.44946l-0.39482,-0.45334l-0.3903,-0.4572l-0.38582,-0.46107l-0.38117,-0.46494l-0.37653,-0.46881l-0.37182,-0.47268l-0.36705,-0.47623l-0.36228,-0.48009l-0.35738,-0.48364l-0.35248,-0.48751l-0.34751,-0.49074l-0.34255,-0.49461l-0.33748,-0.49783l-0.33239,-0.50138l-0.3273,-0.5046l-0.3221,-0.50815l-0.31695,-0.51105l-0.31173,-0.51459l-0.30647,-0.5175l-0.30121,-0.5204l-0.29593,-0.52362l-0.2906,-0.52652l-0.28525,-0.52943l-0.2799,-0.53233l-0.27455,-0.53491l-0.26919,-0.53749l-0.26378,-0.54039l-0.25839,-0.54265l-0.25301,-0.54523l-0.2476,-0.54781l-0.24221,-0.55006l-0.23682,-0.552l-0.2278,-0.54587l-0.22605,-0.55651l-0.22067,-0.55909l-0.21516,-0.56135l-0.20961,-0.56328l-0.204,-0.56554l-0.19836,-0.56747l-0.19268,-0.56973l-0.18698,-0.57167l-0.18117,-0.57328l-0.1754,-0.57521l-0.16956,-0.57715l-0.16369,-0.57876l-0.1578,-0.58037l-0.1519,-0.58231l-0.14596,-0.58359l-0.13997,-0.58489l-0.134,-0.5865l-0.128,-0.58779l-0.12197,-0.58908l-0.11598,-0.59037l-0.10992,-0.59133l-0.10392,-0.59263l-0.09786,-0.59327l-0.09183,-0.59456l-0.08576,-0.59521l-0.07973,-0.59617l-0.07374,-0.59682l-0.06771,-0.59746l-0.06171,-0.59843l-0.05571,-0.59843l-0.04975,-0.59907l-0.04382,-0.59971l-0.03789,-0.60004l-0.03199,-0.60004l-0.02612,-0.60036l-0.02025,-0.60068l-0.01444,-0.60036l-0.00868,-0.60068l-0.00293,-0.60068l0.00271,-0.59101l0.00845,-0.60036l0.01422,-0.60068l0.02002,-0.60036l0.02589,-0.60036l0.03176,-0.60004l0.03763,-0.60004l0.04356,-0.5994l0.04953,-0.59907l0.05549,-0.59872l0.06146,-0.5981l0.06749,-0.59753l0.07348,-0.59685l0.07948,-0.59611l0.08554,-0.5953l0.09157,-0.59446l0.09763,-0.59353l0.10363,-0.59252l0.10969,-0.59143l0.11572,-0.59034l0.12175,-0.58911l0.12778,-0.58785l0.13375,-0.5865l0.13974,-0.58511l0.1457,-0.58366l0.15167,-0.58211l0.15757,-0.58053l0.16347,-0.57889l0.16934,-0.57715l0.17517,-0.57541l0.18098,-0.57354l0.18672,-0.57167l0.19249,-0.56973l0.19814,-0.5677l0.20381,-0.56567l0.20941,-0.56354l0.21496,-0.56141l0.22048,-0.55919l0.22593,-0.55693l0.23134,-0.55464l0.13616,-0.31952l0.23863,-0.54826l0.24514,-0.54864l0.25056,-0.54629l0.25594,-0.54384l0.26133,-0.54133l0.26672,-0.53878l0.27213,-0.5361l0.27748,-0.53343l0.28284,-0.53062l0.28816,-0.52782l0.29351,-0.52491l0.29883,-0.52192l0.30408,-0.51892l0.30937,-0.51582l0.31459,-0.51266l0.31978,-0.50943l0.32498,-0.50618l0.3301,-0.50283l0.33519,-0.49947l0.34026,-0.49603l0.34529,-0.49252l0.35029,-0.48898l0.35519,-0.48538l0.36009,-0.48175l0.36493,-0.47806l0.36969,-0.47433l0.37447,-0.47056l0.37911,-0.46674l0.38379,-0.46289l0.3883,-0.459l0.39285,-0.45508l0.3973,-0.45112l0.40168,-0.44714l0.406,-0.44313l0.41029,-0.4391l0.41448,-0.43502l0.41861,-0.43096l0.4227,-0.42686l0.24611,-0.24485l0.42703,-0.41835l0.43315,-0.41632l0.43721,-0.41213l0.44128,-0.40787l0.44529,-0.40362l0.4493,-0.39923l0.45326,-0.39482l0.4572,-0.39033l0.4611,-0.38578l0.46498,-0.38121l0.46881,-0.37653l0.47261,-0.37182l0.47637,-0.36708l0.48007,-0.36225l0.48374,-0.35738l0.48736,-0.35248l0.49091,-0.34754l0.49448,-0.34252l0.4979,-0.33748l0.50134,-0.33242l0.50467,-0.32726l0.50799,-0.32214l0.51124,-0.31695l0.5144,-0.31173l0.51753,-0.30647l0.52059,-0.30121l0.52362,-0.29593l0.52652,-0.2906l0.5294,-0.28525l0.5322,-0.2799l0.53497,-0.27455l0.53762,-0.26916l0.54023,-0.26378l0.54277,-0.25842l0.54523,-0.25298l0.54765,-0.24763l0.55,-0.24221l0.55226,-0.23679l0.54571,-0.22783l0.55667,-0.22609l0.55906,-0.22067l0.56125,-0.21516l0.56341,-0.20961l0.56554,-0.204l0.56757,-0.19836l0.5696,-0.19268l0.57154,-0.18695l0.57347,-0.1812l0.57528,-0.1754l0.57705,-0.16956l0.57879,-0.16369l0.58044,-0.1578l0.58205,-0.1519l0.58359,-0.14593l0.58504,-0.14l0.58646,-0.134l0.58779,-0.128l0.58908,-0.12197l0.59027,-0.11598l0.59143,-0.10992l0.59249,-0.10389l0.59349,-0.09786l0.59446,-0.09183l0.5953,-0.0858l0.59611,-0.07973l0.59688,-0.07371l0.59753,-0.06771l0.5981,-0.06171l0.59859,-0.05571l0.5994,-0.04975l0.5994,-0.04382l0.60004,-0.03789l0.60004,-0.03199l0.60036,-0.02612l0.60068,-0.02025l0.60036,-0.01444l0.60068,-0.00868l0.60068,-0.00293l0.59101,0.00271l0.60036,0.00845l0.60068,0.01422l0.60036,0.02002l0.60036,0.02589l0.60004,0.03176l0.60004,0.03763l0.5994,0.04359l0.59907,0.04949l0.59875,0.05549l0.5981,0.06146l0.59746,0.06749l0.59682,0.07348l0.59617,0.07951l0.59521,0.08554l0.59456,0.09157l0.59359,0.0976l0.5923,0.10366l0.59166,0.10969l0.59037,0.11572l0.58908,0.12175l0.58779,0.12775l0.5865,0.13378l0.58521,0.13974l0.58359,0.1457l0.58198,0.15164l0.58069,0.15757l0.57876,0.16347l0.57715,0.16934l0.57553,0.17517l0.5736,0.18098l0.57167,0.18675l0.56973,0.19246l0.56747,0.19817l0.56586,0.20381l0.56328,0.20938l0.56167,0.21496l0.55909,0.22048l0.55683,0.22593l0.55458,0.23134l0.31952,0.1361l0.54845,0.23863l0.54845,0.24514l0.5462,0.25056l0.54394,0.25594l0.54136,0.26133l0.53878,0.26675l0.5362,0.2721l0.5333,0.27748l0.53072,0.28284l0.52782,0.28819l0.52491,0.29351l0.52201,0.29883l0.51878,0.30408l0.51589,0.30937l0.51266,0.31456l0.50943,0.31982l0.50621,0.32498l0.50266,0.3301l0.49944,0.33519l0.49622,0.34026l0.49235,0.34529l0.48912,0.35029l0.48525,0.35519l0.48171,0.36009l0.47816,0.36493l0.47429,0.36973l0.47042,0.37444l0.46688,0.37915l0.463,0.38375l0.45881,0.38833l0.45527,0.39285l0.45108,0.3973l0.44721,0.40168l0.44302,0.406l0.43915,0.41029l0.43496,0.41448l0.43109,0.41861l0.42657,0.4227l0.24505,0.24611l0.41819,0.42703l0.41626,0.43315l0.41238,0.43722l0.40787,0.44127l0.40336,0.4453l0.39949,0.4493l0.39465,0.45326l0.39046,0.45721l0.38562,0.4611l0.38111,0.46499l0.3766,0.46882l0.37176,0.4726l0.36725,0.47637l0.36209,0.48007l0.35757,0.48374l0.35241,0.48734l0.34758,0.49094l0.34242,0.49445l0.33758,0.4979l0.33242,0.50134l0.32726,0.50467l0.3221,0.50802l0.31695,0.51121l0.31179,0.5144l0.30631,0.51756l0.30147,0.52056l0.29567,0.52362l0.29083,0.52652l0.28502,0.52943l0.27987,0.53217l0.27471,0.53497l0.26923,0.53762l0.26375,0.54023l0.25827,0.54277l0.25311,0.54523l0.24763,0.54765l0.24214,0.55l0.23698,0.55226l0.22763,0.54564l0.22602,0.55667l0.22086,0.55906l0.21506,0.56125l0.20958,0.56338l0.2041,0.56554l0.19829,0.5676l0.19281,0.56957l0.18701,0.57154l0.1812,0.57344l0.1754,0.57531l0.1696,0.57705l0.16347,0.57879l0.15799,0.58047l0.15186,0.58201l0.14573,0.58359l0.14026,0.58504l0.13381,0.58646l0.128,0.58779l0.1222,0.58904l0.11575,0.5903l0.10995,0.59143l0.10382,0.59246l0.09802,0.59353l0.09189,0.59443l0.08576,0.5953l0.07964,0.59617l0.07384,0.59682l0.06771,0.59756l0.06158,0.5981l0.05578,0.59859l0.04965,0.59907l0.04385,0.59971l0.03805,0.60004l0.03192,0.60004l0.02612,0.60036l0.02031,0.60068l0.01418,0.60036l0.00871,0.60068l0.0029,0.60068v0.01322l-0.00258,0.57779zM200.68743,234.43331l-0.00806,-0.5736l-0.01354,-0.57328l-0.01934,-0.57328l-0.02483,-0.57295l-0.03031,-0.57231l-0.03611,-0.57199l-0.0416,-0.57167l-0.04707,-0.57134l-0.0532,-0.57057l-0.05868,-0.56999l-0.06416,-0.56934l-0.07029,-0.56864l-0.07577,-0.56783l-0.08157,-0.56705l-0.08738,-0.56612l-0.09286,-0.56518l-0.09899,-0.56422l-0.10446,-0.56315l-0.11027,-0.56203l-0.11607,-0.56087l-0.12156,-0.55967l-0.12768,-0.55838l-0.13284,-0.55706l-0.13896,-0.55571l-0.14445,-0.55425l-0.15025,-0.55277l-0.15573,-0.55126l-0.16121,-0.54964l-0.16702,-0.54803l-0.1725,-0.54635l-0.17798,-0.54461l-0.18346,-0.54284l-0.18894,-0.54104l-0.19443,-0.53917l-0.1999,-0.53726l-0.20506,-0.5353l-0.21022,-0.5333l-0.2157,-0.53139l-0.21732,-0.52062l-0.2257,-0.52708l-0.23118,-0.52476l-0.23601,-0.52246l-0.24117,-0.52005l-0.24601,-0.51756l-0.25149,-0.51511l-0.25633,-0.51247l-0.26149,-0.50989l-0.26665,-0.50721l-0.27181,-0.50441l-0.27664,-0.5017l-0.2818,-0.4988l-0.28664,-0.49596l-0.2918,-0.49293l-0.29696,-0.49l-0.30147,-0.48693l-0.30663,-0.4838l-0.31147,-0.48068l-0.31663,-0.47748l-0.32114,-0.47423l-0.3263,-0.47094l-0.33081,-0.46762l-0.33565,-0.46427l-0.34016,-0.46088l-0.345,-0.45738l-0.34951,-0.45391l-0.35435,-0.45041l-0.35854,-0.44684l-0.36338,-0.44325l-0.36757,-0.43965l-0.37208,-0.436l-0.37627,-0.43233l-0.38079,-0.42862l-0.38498,-0.4249l-0.38917,-0.42117l-0.39304,-0.41739l-0.39756,-0.41362l-0.40336,-0.41185l-0.22957,-0.23111l-0.40755,-0.4037l-0.41142,-0.39971l-0.41496,-0.39565l-0.41884,-0.39156l-0.4227,-0.3874l-0.42625,-0.3832l-0.43012,-0.37892l-0.43367,-0.37463l-0.43754,-0.37024l-0.44108,-0.36583l-0.44463,-0.36138l-0.44818,-0.35689l-0.45204,-0.35232l-0.45527,-0.34774l-0.45881,-0.34306l-0.46204,-0.33842l-0.46558,-0.33371l-0.46913,-0.32891l-0.47204,-0.32417l-0.47558,-0.3193l-0.47881,-0.31446l-0.48203,-0.3096l-0.48493,-0.30466l-0.48816,-0.29973l-0.49138,-0.29476l-0.49396,-0.28977l-0.49719,-0.28477l-0.50009,-0.27974l-0.50266,-0.27471l-0.50557,-0.26965l-0.50847,-0.26459l-0.51105,-0.25949l-0.51363,-0.25443l-0.51589,-0.2493l-0.51878,-0.24424l-0.52105,-0.23915l-0.5233,-0.23405l-0.52846,-0.23009l-0.29954,-0.12771l-0.52943,-0.22083l-0.53104,-0.21564l-0.5333,-0.21038l-0.53523,-0.2051l-0.53717,-0.19975l-0.5391,-0.19436l-0.54104,-0.18898l-0.54265,-0.18352l-0.54458,-0.17801l-0.5462,-0.17253l-0.54813,-0.16698l-0.54974,-0.16141l-0.55103,-0.1558l-0.55264,-0.15018l-0.55425,-0.14454l-0.55586,-0.13887l-0.55683,-0.13316l-0.55844,-0.12749l-0.55974,-0.12178l-0.5607,-0.11607l-0.56232,-0.11033l-0.56296,-0.10457l-0.56425,-0.09885l-0.56521,-0.09309l-0.56618,-0.08738l-0.56715,-0.0816l-0.56779,-0.07587l-0.56876,-0.07016l-0.56941,-0.06442l-0.57005,-0.05874l-0.57037,-0.05301l-0.57134,-0.04736l-0.57167,-0.04169l-0.57231,-0.03602l-0.57263,-0.03044l-0.57263,-0.02483l-0.57328,-0.01925l-0.5736,-0.0137l-0.5736,-0.00819l-0.56425,-0.00271l-0.5736,0.00268l-0.5736,0.00812l-0.57328,0.01367l-0.57328,0.01922l-0.57295,0.02476l-0.57231,0.03037l-0.57199,0.03599l-0.57167,0.04166l-0.57134,0.0473l-0.57057,0.05294l-0.57002,0.05868l-0.56934,0.06439l-0.56861,0.0701l-0.56786,0.0758l-0.56702,0.08157l-0.56612,0.08728l-0.56521,0.09305l-0.56419,0.09879l-0.56315,0.10453l-0.56203,0.11027l-0.5609,0.11601l-0.55967,0.12171l-0.55838,0.12746l-0.55706,0.13313l-0.55571,0.13881l-0.55425,0.14451l-0.55277,0.15012l-0.55126,0.15576l-0.54964,0.16137l-0.54803,0.16692l-0.54635,0.1725l-0.54461,0.17798l-0.54287,0.18349l-0.541,0.18894l-0.53917,0.19436l-0.53726,0.19971l-0.5353,0.20506l-0.53333,0.21038l-0.53136,0.21564l-0.52069,0.21722l-0.52708,0.2259l-0.52479,0.23096l-0.52243,0.23608l-0.52005,0.24114l-0.51759,0.24627l-0.51508,0.25134l-0.5125,0.25646l-0.50986,0.26152l-0.50721,0.26658l-0.50444,0.27165l-0.50167,0.27671l-0.49883,0.28177l-0.49592,0.28677l-0.49296,0.29176l-0.48996,0.29673l-0.48693,0.30173l-0.4838,0.30663l-0.48068,0.31153l-0.47748,0.31643l-0.47423,0.32127l-0.47097,0.32607l-0.46762,0.33088l-0.46427,0.33558l-0.46082,0.34032l-0.45742,0.34496l-0.45391,0.34961l-0.4504,0.35416l-0.44684,0.35873l-0.44325,0.36321l-0.43964,0.36763l-0.436,0.37205l-0.43232,0.3764l-0.42862,0.38069l-0.4249,0.38495l-0.42116,0.38911l-0.4174,0.39326l-0.41362,0.39736l-0.41186,0.40339l-0.23111,0.22979l-0.4037,0.40748l-0.39968,0.41129l-0.39568,0.41509l-0.39153,0.41887l-0.38743,0.42262l-0.38317,0.42636l-0.37892,0.43007l-0.37463,0.43376l-0.37024,0.43743l-0.36586,0.44106l-0.36138,0.44467l-0.35686,0.44824l-0.35232,0.45179l-0.34774,0.45528l-0.34306,0.45878l-0.33842,0.4622l-0.33368,0.46562l-0.32894,0.46894l-0.32417,0.47226l-0.3193,0.47555l-0.31446,0.47878l-0.3096,0.48193l-0.30466,0.4851l-0.29973,0.48816l-0.29473,0.49119l-0.2898,0.49419l-0.28477,0.49712l-0.27974,0.49999l-0.27468,0.50283l-0.26965,0.5056l-0.26459,0.50831l-0.25949,0.51099l-0.25443,0.5136l-0.24933,0.51614l-0.24424,0.51863l-0.23911,0.52108l-0.23405,0.52346l-0.23009,0.52846l-0.12778,0.29967l-0.22083,0.5291l-0.21564,0.53123l-0.21038,0.53323l-0.2051,0.53523l-0.19975,0.53717l-0.19439,0.5391l-0.18898,0.54097l-0.18349,0.54277l-0.17805,0.54455l-0.17253,0.54632l-0.16695,0.54797l-0.16141,0.54961l-0.15583,0.55122l-0.15015,0.55274l-0.14454,0.55422l-0.13887,0.55567l-0.13319,0.55706l-0.12749,0.55838l-0.12178,0.55964l-0.11604,0.56087l-0.11033,0.56206l-0.1046,0.56315l-0.09882,0.56422l-0.09312,0.56521l-0.08735,0.56615l-0.0816,0.56705l-0.0759,0.56786l-0.07013,0.56867l-0.06446,0.56937l-0.05871,0.57005l-0.05301,0.57054l-0.04736,0.57134l-0.04169,0.57167l-0.03605,0.57231l-0.03041,0.57231l-0.02483,0.57295l-0.01925,0.57328l-0.0137,0.5736l-0.00819,0.5736l-0.00271,0.56425l0.00268,0.5736l0.00812,0.5736l0.01367,0.57328l0.01922,0.57328l0.02476,0.57295l0.03037,0.57231l0.03602,0.57199l0.04163,0.57167l0.0473,0.57134l0.05298,0.5707l0.05865,0.56973l0.06439,0.56941l0.0701,0.56876l0.07584,0.56779l0.08154,0.56715l0.08732,0.56586l0.09305,0.56521l0.09879,0.56425l0.10453,0.56328l0.11027,0.56199l0.11601,0.5607l0.12171,0.55974l0.12743,0.55844l0.13316,0.55716l0.13881,0.55555l0.14448,0.55425l0.15015,0.55297l0.15576,0.55103l0.16134,0.54974l0.16695,0.54813l0.17247,0.5462l0.17801,0.54458l0.18349,0.54297l0.18894,0.54104l0.19433,0.5391l0.19975,0.53717l0.20506,0.53555l0.21035,0.5333l0.21567,0.53136l0.21715,0.5204l0.2259,0.52717l0.23096,0.52491l0.23608,0.52233l0.24117,0.52008l0.24624,0.5175l0.25137,0.51524l0.25643,0.51234l0.26152,0.50976l0.26661,0.5075l0.27165,0.50428l0.27671,0.5017l0.28174,0.4988l0.28677,0.49589l0.2918,0.49299l0.29673,0.49009l0.3017,0.48687l0.30666,0.48364l0.31153,0.48074l0.31643,0.47751l0.32127,0.47429l0.32607,0.47107l0.33085,0.46752l0.33561,0.4643l0.34029,0.46075l0.34496,0.45753l0.34961,0.45366l0.35419,0.45043l0.3587,0.44689l0.36321,0.44334l0.36763,0.43979l0.37205,0.43592l0.3764,0.43238l0.38069,0.42851l0.38491,0.42496l0.38911,0.42109l0.39326,0.41754l0.39733,0.41368l0.40341,0.41174l0.22987,0.23118l0.40748,0.40368l0.4113,0.39981l0.41509,0.39562l0.41887,0.39143l0.42262,0.38756l0.42636,0.38304l0.43009,0.37885l0.43375,0.37466l0.43743,0.37015l0.44107,0.36595l0.44465,0.36145l0.44826,0.35693l0.45179,0.35209l0.45529,0.3479l0.45878,0.34306l0.4622,0.33855l0.46558,0.33339l0.46897,0.3292l0.47226,0.32404l0.47555,0.31921l0.47874,0.31469l0.48197,0.30953l0.4851,0.3047l0.48813,0.29954l0.49122,0.2947l0.49419,0.28986l0.49712,0.28471l0.50002,0.27987l0.5028,0.27471l0.5056,0.26955l0.50831,0.26471l0.51099,0.25955l0.51363,0.2544l0.51611,0.24924l0.51863,0.24408l0.52108,0.23924l0.52346,0.23408l0.52846,0.23021l0.2996,0.12768l0.52914,0.22086l0.5312,0.21538l0.53323,0.21055l0.53523,0.20506l0.5372,0.19958l0.5391,0.19443l0.54097,0.18894l0.54277,0.18378l0.54458,0.17798l0.54629,0.1725l0.548,0.16702l0.54961,0.16121l0.55119,0.15573l0.55277,0.15025l0.55422,0.14445l0.55564,0.13896l0.55709,0.13316l0.55835,0.12768l0.5597,0.12156l0.56083,0.11607l0.56203,0.11027l0.56319,0.10479l0.56419,0.09866l0.56525,0.09318l0.56615,0.08738l0.56705,0.08157l0.56786,0.07577l0.56867,0.07029l0.56937,0.06449l0.57005,0.05868l0.5706,0.05288l0.57134,0.0474l0.57167,0.0416l0.57231,0.03611l0.57231,0.03031l0.57295,0.02483l0.57328,0.01934l0.57328,0.01387l0.57392,0.00806l0.56425,0.0029l0.5736,-0.0029l0.5736,-0.00806l0.57328,-0.01354l0.57328,-0.01934l0.57263,-0.02483l0.57263,-0.03031l0.57199,-0.03611l0.57167,-0.0416l0.57134,-0.04707l0.5707,-0.0532l0.56973,-0.05868l0.56941,-0.06416l0.56876,-0.07029l0.56779,-0.07577l0.56715,-0.08157l0.56586,-0.08738l0.56521,-0.09286l0.56425,-0.09899l0.56328,-0.10446l0.56199,-0.11027l0.56102,-0.11607l0.55941,-0.12156l0.55844,-0.12736l0.55716,-0.13316l0.55555,-0.13896l0.55425,-0.14445l0.55297,-0.14993l0.55103,-0.15605l0.54974,-0.16121l0.54813,-0.16702l0.5462,-0.1725l0.54458,-0.17798l0.54297,-0.18346l0.54104,-0.18894l0.5391,-0.1941l0.53749,-0.1999l0.53523,-0.20506l0.5333,-0.21022l0.53136,-0.2157l0.5204,-0.21732l0.52717,-0.2257l0.52491,-0.23118l0.52233,-0.23601l0.52008,-0.24117l0.5175,-0.24601l0.51524,-0.25149l0.51234,-0.25633l0.50976,-0.26149l0.50718,-0.26665l0.5046,-0.27181l0.5017,-0.27664l0.4988,-0.2818l0.49589,-0.28664l0.49299,-0.2918l0.49009,-0.29696l0.48687,-0.30147l0.48364,-0.30663l0.48074,-0.31179l0.47751,-0.3163l0.47429,-0.32114l0.47074,-0.3263l0.46785,-0.33081l0.4643,-0.33565l0.46075,-0.34016l0.45753,-0.345l0.45366,-0.34951l0.45043,-0.35435l0.44689,-0.35854l0.44334,-0.36338l0.43947,-0.36757l0.43625,-0.37208l0.43205,-0.37627l0.42883,-0.38079l0.42496,-0.38498l0.42109,-0.38917l0.41722,-0.39336l0.41368,-0.39723l0.41174,-0.40336l0.23118,-0.22957l0.40368,-0.40755l0.39981,-0.41142l0.39562,-0.41496l0.39143,-0.41884l0.38756,-0.4227l0.38304,-0.42625l0.37885,-0.43012l0.37466,-0.43399l0.37047,-0.43721l0.36564,-0.44108l0.36145,-0.44463l0.35693,-0.44818l0.35209,-0.45204l0.3479,-0.45527l0.34306,-0.45881l0.33855,-0.46204l0.33371,-0.46558l0.32887,-0.46913l0.32404,-0.47204l0.31921,-0.47558l0.31469,-0.47881l0.30953,-0.48203l0.3047,-0.48493l0.29954,-0.48816l0.2947,-0.49138l0.28986,-0.49396l0.28471,-0.49719l0.27987,-0.50009l0.27471,-0.50266l0.26955,-0.50589l0.26471,-0.50815l0.25955,-0.51105l0.2544,-0.51363l0.24924,-0.51589l0.24408,-0.51878l0.23924,-0.52105l0.23408,-0.52362l0.22989,-0.52846l0.128,-0.29954l0.22086,-0.52943l0.2157,-0.53104l0.21022,-0.5333l0.20506,-0.53523l0.1999,-0.53717l0.19443,-0.5391l0.18894,-0.54104l0.18346,-0.54265l0.17798,-0.54458l0.1725,-0.5462l0.16702,-0.54813l0.16154,-0.54974l0.15573,-0.55103l0.15025,-0.55264l0.14445,-0.55425l0.13896,-0.55586l0.13316,-0.55683l0.12736,-0.55844l0.12188,-0.55974l0.11607,-0.5607l0.11027,-0.56232l0.10446,-0.56296l0.09899,-0.56425l0.09318,-0.56521l0.08738,-0.56618l0.08157,-0.56715l0.07577,-0.56779l0.07029,-0.56844l0.06449,-0.56941l0.05868,-0.57005l0.05288,-0.5707l0.0474,-0.57134l0.0416,-0.57167l0.03611,-0.57231l0.03031,-0.57231l0.02483,-0.57295l0.01934,-0.57328l0.01387,-0.57328l0.00806,-0.57392l0.0029,-0.56425l-0.00032,-0.01322z"
                    data-paper-data="{&quot;isPathIcon&quot;:true}" fill="#101820"
                    id="element-id-31724"></path>
            </g>
            <path d="M221.85127,295.12658v-120.25316h1.97619v120.25316z"
                data-paper-data="{&quot;isShapeTextSeparator&quot;:true}" fill="#101820"
                id="element-id-68253"></path>
        </g>
    </g>
    <rect data-element-id="element-id-7296" stroke-width="2" fill="transparent"
        class="invisible-element-box grouping-element" x="249" y="175" width="217" height="120"
        data-element-name="isPrimaryText"></rect>
    <rect data-element-id="element-id-40562" stroke-width="2" fill="transparent"
        class="invisible-element-box grouping-element" x="83" y="175" width="120" height="120"
        data-element-name="isIcon"></rect>
    <rect data-element-id="element-id-31724" stroke-width="2" fill="transparent"
        class="invisible-element-box individual-element" x="83" y="175" width="120" height="120">
    </rect>
    <rect data-element-id="element-id-67089" stroke-width="2" fill="transparent"
        class="invisible-element-box individual-element" x="249" y="233" width="66" height="62">
    </rect>
    <rect data-element-id="element-id-20151" stroke-width="2" fill="transparent"
        class="invisible-element-box individual-element" x="323" y="231" width="61" height="65">
    </rect>
    <rect data-element-id="element-id-8040" stroke-width="2" fill="transparent"
        class="invisible-element-box individual-element" x="411" y="233" width="55" height="62">
    </rect>
    <rect data-element-id="element-id-56594" stroke-width="2" fill="transparent"
        class="invisible-element-box individual-element" x="402" y="175" width="48" height="47">
    </rect>
    <rect data-element-id="element-id-56434" stroke-width="2" fill="transparent"
        class="invisible-element-box individual-element" x="347" y="175" width="47" height="47">
    </rect>
    <rect data-element-id="element-id-32176" stroke-width="2" fill="transparent"
        class="invisible-element-box individual-element" x="249" y="175" width="44" height="47">
    </rect>
    <rect data-element-id="element-id-50762" stroke-width="2" fill="transparent"
        class="invisible-element-box individual-element" x="300" y="175" width="38" height="47">
    </rect>
    <rect data-element-id="element-id-17780" stroke-width="2" fill="transparent"
        class="invisible-element-box individual-element" x="390" y="233" width="10" height="62">
    </rect>
    <rect data-element-id="element-id-15866" stroke-width="2" fill="transparent"
        class="invisible-element-box individual-element" x="459" y="175" width="8" height="47">
    </rect>
    <rect data-element-id="element-id-68253" stroke-width="2" fill="transparent"
        class="invisible-element-box individual-element" x="222" y="175" width="2" height="120">
    </rect>
</svg>