<svg width="710.1400390625px" height="226.0399963378906px" xmlns="http://www.w3.org/2000/svg" viewBox="-105.07001953125001 -38.01999816894531 710.1400390625 226.0399963378906" style="background: none;" preserveAspectRatio="xMidYMid"><defs><filter id="editing-hover" x="-100%" y="-100%" width="300%" height="300%"><feFlood flood-color="#323232" result="flood"></feFlood><feComposite operator="in" in2="SourceAlpha" in="flood" result="shadow"></feComposite><feOffset dx="-3.9" dy="-1.9" in="SourceGraphic" result="offset-1"></feOffset><feOffset dx="3.9" dy="1.9" in="shadow" result="offset-2"></feOffset><feMerge><feMergeNode in="offset-2"></feMergeNode><feMergeNode in="offset-1"></feMergeNode></feMerge></filter></defs><g filter="url(#editing-hover)"><g transform="translate(-8.685868978500366, 133.95999474823475)"><path d="M39.80 1.34L39.80 1.34Q32.96 1.34 28.54-0.80L28.54-0.80L28.54-0.80Q24.12-2.95 21.71-6.03L21.71-6.03L21.04-6.03L16.35 0L9.65 0L9.65-72.36L9.65-72.36Q9.65-79.19 7.77-82.48L7.77-82.48L7.77-82.48Q5.90-85.76 0.27-85.76L0.27-85.76L-2.41-85.76L-2.41-88.44L9.65-88.44L9.65-88.44Q14.61-88.44 17.09-87.17L17.09-87.17L17.09-87.17Q19.56-85.89 20.64-82.54L20.64-82.54L20.64-82.54Q21.71-79.19 21.71-72.36L21.71-72.36L21.71-60.30L21.71-60.30Q25.59-62.18 29.48-63.25L29.48-63.25L29.48-63.25Q33.37-64.32 38.46-64.32L38.46-64.32L38.46-64.32Q50.92-64.32 57.42-55.07L57.42-55.07L57.42-55.07Q63.92-45.83 63.92-31.49L63.92-31.49L63.92-31.49Q63.92-17.29 57.62-7.97L57.62-7.97L57.62-7.97Q51.32 1.34 39.80 1.34L39.80 1.34ZM35.78-4.02L35.78-4.02Q43.42-4.02 47.30-11.59L47.30-11.59L47.30-11.59Q51.19-19.16 51.19-31.49L51.19-31.49L51.19-31.49Q51.19-43.95 47.10-51.46L47.10-51.46L47.10-51.46Q43.01-58.96 34.44-58.96L34.44-58.96L34.44-58.96Q31.62-58.96 28.68-57.89L28.68-57.89L28.68-57.89Q25.73-56.82 21.71-54.94L21.71-54.94L21.71-12.06L21.71-12.06Q24.12-8.44 27.40-6.23L27.40-6.23L27.40-6.23Q30.69-4.02 35.78-4.02L35.78-4.02ZM104.25 1.34L104.25 1.34Q95.14 1.34 88.84-3.02L88.84-3.02L88.84-3.02Q82.54-7.37 79.33-14.81L79.33-14.81L79.33-14.81Q76.11-22.24 76.11-31.49L76.11-31.49L76.11-31.49Q76.11-40.60 79.33-48.11L79.33-48.11L79.33-48.11Q82.54-55.61 88.64-59.97L88.64-59.97L88.64-59.97Q94.74-64.32 102.91-64.32L102.91-64.32L102.91-64.32Q116.45-64.32 123.08-56.75L123.08-56.75L123.08-56.75Q129.71-49.18 129.71-34.84L129.71-34.84L129.44-29.48L88.84-29.48L88.84-29.48Q88.84-18.22 93.67-11.12L93.67-11.12L93.67-11.12Q98.49-4.02 106.93-4.02L106.93-4.02L106.93-4.02Q113.23-4.02 117.59-6.70L117.59-6.70L117.59-6.70Q121.94-9.38 125.69-14.74L125.69-14.74L128.37-12.73L128.37-12.73Q123.95-5.36 118.05-2.01L118.05-2.01L118.05-2.01Q112.16 1.34 104.25 1.34L104.25 1.34ZM88.84-34.84L116.98-34.84L116.98-34.84Q116.98-46.63 113.50-52.80L113.50-52.80L113.50-52.80Q110.01-58.96 102.91-58.96L102.91-58.96L102.91-58.96Q98.89-58.96 95.68-55.81L95.68-55.81L95.68-55.81Q92.46-52.66 90.65-47.17L90.65-47.17L90.65-47.17Q88.84-41.67 88.84-34.84L88.84-34.84ZM174.33 0L174.33-36.58L151.55-71.02L151.55-71.02Q148.07-75.98 145.66-78.79L145.66-78.79L145.66-78.79Q143.25-81.61 139.96-83.55L139.96-83.55L139.96-83.55Q136.68-85.49 132.12-85.76L132.12-85.76L132.12-88.44L144.18-88.44L144.18-88.44Q150.88-88.44 155.44-84.49L155.44-84.49L155.44-84.49Q160.00-80.53 164.28-73.70L164.28-73.70L183.71-43.55L211.72-88.44L217.75-88.44L186.39-37.52L186.39 0L174.33 0ZM267.33 2.68L267.33 2.68Q254.87 2.68 245.42-3.48L245.42-3.48L245.42-3.48Q235.97-9.65 230.88-20.37L230.88-20.37L230.88-20.37Q225.79-31.09 225.79-44.22L225.79-44.22L225.79-44.22Q225.79-57.35 230.88-68.07L230.88-68.07L230.88-68.07Q235.97-78.79 245.42-84.96L245.42-84.96L245.42-84.96Q254.87-91.12 267.33-91.12L267.33-91.12L267.33-91.12Q279.79-91.12 289.24-84.96L289.24-84.96L289.24-84.96Q298.69-78.79 303.78-68.07L303.78-68.07L303.78-68.07Q308.87-57.35 308.87-44.22L308.87-44.22L308.87-44.22Q308.87-31.09 303.78-20.37L303.78-20.37L303.78-20.37Q298.69-9.65 289.24-3.48L289.24-3.48L289.24-3.48Q279.79 2.68 267.33 2.68L267.33 2.68ZM267.33-2.68L267.33-2.68Q276.04-2.68 282.41-7.77L282.41-7.77L282.41-7.77Q288.77-12.86 292.12-22.18L292.12-22.18L292.12-22.18Q295.47-31.49 295.47-44.22L295.47-44.22L295.47-44.22Q295.47-56.95 292.12-66.26L292.12-66.26L292.12-66.26Q288.77-75.58 282.41-80.67L282.41-80.67L282.41-80.67Q276.04-85.76 267.33-85.76L267.33-85.76L267.33-85.76Q258.62-85.76 252.26-80.67L252.26-80.67L252.26-80.67Q245.89-75.58 242.54-66.26L242.54-66.26L242.54-66.26Q239.19-56.95 239.19-44.22L239.19-44.22L239.19-44.22Q239.19-31.49 242.54-22.18L242.54-22.18L242.54-22.18Q245.89-12.86 252.26-7.77L252.26-7.77L252.26-7.77Q258.62-2.68 267.33-2.68L267.33-2.68ZM362.47 1.34L362.47 1.34Q349.61 1.34 342.10-3.02L342.10-3.02L342.10-3.02Q334.60-7.37 331.45-15.95L331.45-15.95L331.45-15.95Q328.30-24.52 328.30-38.19L328.30-38.19L328.30-72.36L328.30-72.36Q328.30-79.19 326.42-82.48L326.42-82.48L326.42-82.48Q324.55-85.76 318.92-85.76L318.92-85.76L316.24-85.76L316.24-88.44L328.30-88.44L328.30-88.44Q333.26-88.44 335.74-87.17L335.74-87.17L335.74-87.17Q338.22-85.89 339.29-82.54L339.29-82.54L339.29-82.54Q340.36-79.19 340.36-72.36L340.36-72.36L340.36-34.17L340.36-34.17Q340.36-19.30 345.85-11.66L345.85-11.66L345.85-11.66Q351.35-4.02 364.08-4.02L364.08-4.02L364.08-4.02Q374.26-4.02 380.23-7.64L380.23-7.64L380.23-7.64Q386.19-11.26 388.73-18.63L388.73-18.63L388.73-18.63Q391.28-26.00 391.28-38.19L391.28-38.19L391.28-88.44L396.64-88.44L396.64-38.19L396.64-38.19Q396.64-24.25 393.69-15.75L393.69-15.75L393.69-15.75Q390.74-7.24 383.31-2.95L383.31-2.95L383.31-2.95Q375.87 1.34 362.47 1.34L362.47 1.34ZM435.37 1.34L435.37 1.34Q427.86 1.34 423.57-2.95L423.57-2.95L423.57-2.95Q419.29-7.24 419.29-16.08L419.29-16.08L419.29-57.62L409.91-57.62L409.91-62.98L419.29-62.98L419.29-75.04L425.99-83.08L431.35-83.08L431.35-62.98L447.43-62.98L447.43-57.62L431.35-57.62L431.35-16.08L431.35-16.08Q431.35-4.02 440.73-4.02L440.73-4.02L440.73-4.02Q443.94-4.02 446.15-4.69L446.15-4.69L446.15-4.69Q448.36-5.36 450.78-6.70L450.78-6.70L452.12-4.02L452.12-4.02Q449.03-1.74 445.28-0.20L445.28-0.20L445.28-0.20Q441.53 1.34 435.37 1.34L435.37 1.34ZM466.45 26.80L466.45 22.78L466.45 22.78Q473.02 22.78 477.24 19.77L477.24 19.77L477.24 19.77Q481.46 16.75 484.54 8.71L484.54 8.71L487.22 1.34L465.78-50.92L465.78-50.92Q462.03-60.57 451.04-61.64L451.04-61.64L451.04-64.32L462.43-64.32L462.43-64.32Q474.09-64.32 478.51-53.60L478.51-53.60L493.79-16.48L510.67-62.98L517.37-62.98L491.24 8.71L491.24 8.71Q487.36 19.30 482.67 23.05L482.67 23.05L482.67 23.05Q477.98 26.80 470.47 26.80L470.47 26.80L466.45 26.80Z" fill="#dfa0c9"></path></g></g><style>text {
  font-size: 64px;
  font-family: Arial Black;
  dominant-baseline: central;
  text-anchor: middle;
}</style></svg>