<svg id="visual" viewBox="0 0 900 600" width="900" height="600" xmlns="http://www.w3.org/2000/svg" xmlns:xlink="http://www.w3.org/1999/xlink" version="1.1"><rect x="0" y="0" width="900" height="600" fill="#f9f9f9"></rect><path d="M0 574L7.2 571.7C14.3 569.3 28.7 564.7 43 561.5C57.3 558.3 71.7 556.7 86 559.7C100.3 562.7 114.7 570.3 128.8 570.3C143 570.3 157 562.7 171.2 564.2C185.3 565.7 199.7 576.3 214 575.7C228.3 575 242.7 563 257 562.7C271.3 562.3 285.7 573.7 300 576.5C314.3 579.3 328.7 573.7 343 572C357.3 570.3 371.7 572.7 386 571.3C400.3 570 414.7 565 428.8 564C443 563 457 566 471.2 566.5C485.3 567 499.7 565 514 568C528.3 571 542.7 579 557 581.5C571.3 584 585.7 581 600 575.2C614.3 569.3 628.7 560.7 643 558.7C657.3 556.7 671.7 561.3 686 564C700.3 566.7 714.7 567.3 728.8 565.3C743 563.3 757 558.7 771.2 559.2C785.3 559.7 799.7 565.3 814 568.2C828.3 571 842.7 571 857 570.3C871.3 569.7 885.7 568.3 892.8 567.7L900 567L900 601L892.8 601C885.7 601 871.3 601 857 601C842.7 601 828.3 601 814 601C799.7 601 785.3 601 771.2 601C757 601 743 601 728.8 601C714.7 601 700.3 601 686 601C671.7 601 657.3 601 643 601C628.7 601 614.3 601 600 601C585.7 601 571.3 601 557 601C542.7 601 528.3 601 514 601C499.7 601 485.3 601 471.2 601C457 601 443 601 428.8 601C414.7 601 400.3 601 386 601C371.7 601 357.3 601 343 601C328.7 601 314.3 601 300 601C285.7 601 271.3 601 257 601C242.7 601 228.3 601 214 601C199.7 601 185.3 601 171.2 601C157 601 143 601 128.8 601C114.7 601 100.3 601 86 601C71.7 601 57.3 601 43 601C28.7 601 14.3 601 7.2 601L0 601Z" fill="#dfa0c9" stroke-linecap="round" stroke-linejoin="miter"></path></svg>